M48
;Layer_Color=9474304
;FILE_FORMAT=4:4
METRIC,TZ
;TYPE=PLATED
T1F00S00C0.7000
T2F00S00C0.7112
T3F00S00C1.0000
T4F00S00C1.5000
T5F00S00C3.0000
;TYPE=NON_PLATED
T6F00S00C2.5000
%
T01
X93980Y99060
Y147860
T02
X364490Y107950
Y129540
X384810Y208280
Y231140
X232410Y227330
Y210820
X199390Y180340
X166140Y176530
X144780Y187960
Y213360
Y228600
X81280Y248920
X74930Y175260
X113030Y161290
X167640Y123190
X198350Y132193
X175030Y90170
X195580Y35560
X267045Y62760
X29210Y21590
Y128270
X288290Y256540
Y279400
X308610
X328930
Y256540
X308610
T03
X52070Y36830
X96520Y46990
Y21590
X121920
X147320
Y46990
X121920
X52070Y162830
X49530Y228600
X24130
X74930
X100330
T04
X306070Y78740
Y162560
T05
X368300Y31750
X30480Y269240
T06
X364070Y78740
Y162560
M30
